<?xml version="1.0" standalone="no"?>
<!DOCTYPE svg PUBLIC "-//W3C//DTD SVG 20010904//EN"
 "http://www.w3.org/TR/2001/REC-SVG-20010904/DTD/svg10.dtd">
<svg version="1.0" xmlns="http://www.w3.org/2000/svg"
 width="1024.000000pt" height="1024.000000pt" viewBox="0 0 1024.000000 1024.000000"
 preserveAspectRatio="xMidYMid meet">

<g transform="translate(0.000000,1024.000000) scale(0.100000,-0.100000)"
fill="#000000" stroke="none">
<path d="M5238 8366 l-37 -32 49 -49 50 -49 0 29 c0 17 3 54 6 83 6 47 5 52
-12 52 -10 -1 -36 -16 -56 -34z"/>
<path d="M5830 7548 c1 -143 31 -571 43 -615 14 -52 104 -214 161 -288 16 -22
67 -83 111 -135 182 -212 385 -501 465 -660 28 -56 103 -260 116 -315 l7 -30
8 35 c17 80 39 288 39 377 0 166 -20 384 -47 498 -26 114 -86 272 -155 410
-113 224 -417 571 -616 703 -114 76 -132 78 -132 20z"/>
<path d="M3081 6272 c-74 -75 -143 -186 -251 -402 -129 -257 -230 -566 -290
-882 -9 -44 -39 -334 -55 -518 -7 -75 8 -298 26 -395 9 -50 13 -54 1037 -1077
l1027 -1028 17 50 c44 130 73 384 64 566 -11 236 -56 436 -149 654 -119 280
-292 522 -702 980 -148 166 -269 317 -331 415 -118 184 -248 485 -298 690 -54
223 -53 616 3 950 15 89 -9 88 -98 -3z"/>
<path d="M7083 6274 c4 -27 16 -98 27 -159 46 -251 34 -703 -26 -934 -117
-451 -376 -988 -683 -1415 -52 -72 -126 -176 -163 -230 l-70 -99 412 -411 411
-411 64 68 c137 146 327 422 424 614 103 205 198 499 235 723 78 473 33 935
-137 1420 -93 264 -206 513 -305 665 -51 79 -146 191 -175 207 -19 10 -20 8
-14 -38z"/>
</g>
</svg>
