<?xml version="1.0" standalone="no"?>
<!DOCTYPE svg PUBLIC "-//W3C//DTD SVG 20010904//EN"
 "http://www.w3.org/TR/2001/REC-SVG-20010904/DTD/svg10.dtd">
<svg version="1.0" xmlns="http://www.w3.org/2000/svg"
 width="1024.000000pt" height="1024.000000pt" viewBox="0 0 1024.000000 1024.000000"
 preserveAspectRatio="xMidYMid meet">

<g transform="translate(0.000000,1024.000000) scale(0.100000,-0.100000)"
fill="#000000" stroke="none">
<path d="M5212 8344 c-34 -31 -96 -97 -136 -148 -181 -225 -268 -406 -374
-781 -83 -291 -108 -481 -99 -744 6 -192 23 -289 78 -456 105 -315 278 -583
629 -975 234 -261 432 -583 514 -835 43 -130 75 -310 87 -475 6 -85 15 -159
20 -164 28 -31 275 297 378 501 85 170 159 380 181 516 15 92 12 339 -5 436
-31 175 -101 365 -200 538 -98 171 -195 310 -283 405 -133 144 -176 198 -297
378 -224 331 -348 658 -400 1055 -18 136 -21 487 -5 630 15 139 13 175 -7 175
-10 0 -46 -25 -81 -56z"/>
<path d="M5834 7418 c12 -291 24 -441 42 -498 16 -56 92 -192 148 -265 16 -22
67 -83 111 -135 191 -224 386 -503 475 -680 40 -80 92 -217 110 -289 6 -23 14
-41 17 -38 13 14 42 293 43 408 0 303 -33 510 -117 719 -70 174 -107 242 -212
390 -168 236 -515 560 -600 560 l-24 0 7 -172z"/>
<path d="M4269 7550 c-59 -38 -191 -170 -270 -267 -211 -262 -362 -618 -451
-1063 -20 -104 -23 -143 -23 -405 0 -266 2 -299 23 -395 92 -416 285 -754 667
-1165 326 -351 557 -688 660 -961 70 -186 112 -427 116 -666 1 -54 4 -98 8
-98 9 0 180 177 227 235 140 174 221 319 283 500 79 236 100 461 66 702 -59
417 -257 786 -668 1247 -226 253 -394 506 -507 761 -94 210 -107 251 -147 444
-37 173 -37 180 -38 406 0 209 3 245 28 388 16 88 40 204 53 259 14 55 24 102
21 104 -2 2 -24 -9 -48 -26z"/>
<path d="M3076 6268 c-151 -156 -350 -559 -451 -911 -42 -148 -80 -309 -94
-397 -20 -124 -51 -473 -51 -569 0 -420 165 -959 413 -1346 39 -60 94 -142
123 -180 80 -107 296 -329 409 -418 185 -148 429 -296 635 -386 112 -48 431
-151 470 -151 23 0 39 28 68 120 44 136 56 241 56 480 1 256 -12 351 -71 535
-121 377 -282 622 -768 1165 -246 276 -336 402 -458 645 -119 239 -185 455
-208 680 -15 148 -7 432 17 610 23 174 23 189 0 193 -13 3 -41 -19 -90 -70z"/>
<path d="M7080 6283 c0 -21 5 -56 10 -78 43 -190 55 -582 25 -825 -54 -436
-353 -1107 -724 -1624 -52 -72 -124 -174 -161 -226 -37 -52 -114 -162 -172
-245 -57 -82 -165 -238 -238 -345 -197 -290 -421 -567 -531 -660 -30 -25 -103
-92 -164 -150 -60 -58 -126 -116 -145 -129 -100 -68 -134 -127 -88 -152 35
-19 454 -5 616 20 386 59 766 206 1087 419 310 207 586 498 787 832 92 152
116 199 169 332 92 228 135 374 171 584 20 115 23 162 22 434 0 330 -9 421
-70 669 -74 302 -260 755 -396 963 -46 71 -173 218 -189 218 -5 0 -9 -17 -9
-37z"/>
</g>
</svg>
